<svg xmlns="http://www.w3.org/2000/svg" xmlns:xlink="http://www.w3.org/1999/xlink" width="30" height="30" viewBox="0 0 30 30"><defs><path id="fzm6a" d="M228 34a4 4 0 0 1 4-4h22a4 4 0 0 1 4 4v22a4 4 0 0 1-4 4h-22a4 4 0 0 1-4-4z"/><path id="fzm6b" d="M244.877 37.991c-1.063 0-1.914.31-2.553.926-.64.617-.959 1.485-.959 2.605v1.968h-2.35v2.673h2.35v6.853h2.82v-6.853h2.341l.36-2.673h-2.7v-1.706c0-.434.092-.759.276-.975.184-.217.54-.326 1.069-.326h1.447v-2.382c-.498-.073-1.198-.11-2.101-.11z"/><clipPath id="fzm6c"><use fill="#fff" xlink:href="#fzm6a"/></clipPath></defs><g><g transform="translate(-228 -30)"><g><use fill="#fff" xlink:href="#fzm6b"/></g><g><use fill="#fff" fill-opacity="0" stroke="#fff" stroke-miterlimit="50" stroke-width="2" clip-path="url(&quot;#fzm6c&quot;)" xlink:href="#fzm6a"/></g></g></g></svg>