<svg xmlns="http://www.w3.org/2000/svg"><defs><symbol id="icon-facebook-logo" viewBox="0 0 90 90"><path d="M90 15.001C90 7.119 82.884 0 75 0H15C7.116 0 0 7.119 0 15.001v59.998C0 82.881 7.116 90 15.001 90H45V56H34V41h11v-5.844C45 25.077 52.568 16 61.875 16H74v15H61.875C60.548 31 59 32.611 59 35.024V41h15v15H59v34h16c7.884 0 15-7.119 15-15.001V15.001z"/></symbol><symbol id="icon-icon" viewBox="0 0 26 26"><path d="M20 7c-.551 0-1-.449-1-1V4c0-.551.449-1 1-1h2c.551 0 1 .449 1 1v2c0 .551-.449 1-1 1h-2zM13 9.188c-.726 0-1.396.213-1.973.563.18-.056.367-.093.564-.093a1.933 1.933 0 1 1-1.933 1.934c0-.199.039-.386.094-.565A3.77 3.77 0 0 0 9.188 13a3.81 3.81 0 0 0 3.813 3.813A3.812 3.812 0 1 0 13 9.188z" fill="#030104"/><path d="M13 7a6 6 0 1 1 0 12 6 6 0 0 1 0-12m0-2c-4.411 0-8 3.589-8 8s3.589 8 8 8 8-3.589 8-8-3.589-8-8-8z" fill="#030104"/><path d="M21.125 0H4.875A4.874 4.874 0 0 0 0 4.875v16.25A4.874 4.874 0 0 0 4.875 26h16.25A4.874 4.874 0 0 0 26 21.125V4.875A4.874 4.874 0 0 0 21.125 0zM24 9h-6.537A5.97 5.97 0 0 1 19 13a6 6 0 0 1-12 0c0-1.539.584-2.938 1.537-4H2V4.875A2.879 2.879 0 0 1 4.875 2h16.25A2.878 2.878 0 0 1 24 4.875V9z" fill="#030104"/></symbol><symbol id="icon-twitter-sign" viewBox="0 0 438.536 438.536"><path d="M414.41 24.123C398.333 8.042 378.963 0 356.315 0H82.228C59.58 0 40.21 8.042 24.126 24.123 8.045 40.207.003 59.576.003 82.225v274.084c0 22.647 8.042 42.018 24.123 58.102 16.084 16.084 35.454 24.126 58.102 24.126h274.084c22.648 0 42.018-8.042 58.095-24.126 16.084-16.084 24.126-35.454 24.126-58.102V82.225c-.001-22.649-8.043-42.021-24.123-58.102zm-78.939 144.612c.191 1.713.288 4.278.288 7.71 0 15.989-2.334 32.025-6.995 48.104-4.661 16.087-11.8 31.504-21.416 46.254-9.606 14.749-21.074 27.791-34.396 39.115-13.325 11.32-29.311 20.365-47.968 27.117-18.648 6.762-38.637 10.143-59.953 10.143-33.116 0-63.76-8.952-91.931-26.836 4.568.568 9.329.855 14.275.855 27.6 0 52.439-8.565 74.519-25.7-12.941-.185-24.506-4.179-34.688-11.991-10.185-7.803-17.273-17.699-21.271-29.691 4.947.76 8.658 1.137 11.132 1.137 4.187 0 9.042-.76 14.56-2.279-13.894-2.669-25.598-9.562-35.115-20.697-9.519-11.136-14.277-23.84-14.277-38.114v-.571c10.085 4.755 19.602 7.229 28.549 7.422-17.321-11.613-25.981-28.265-25.981-49.963 0-10.66 2.758-20.747 8.278-30.264 15.035 18.464 33.311 33.213 54.816 44.252 21.507 11.038 44.54 17.227 69.092 18.558-.95-3.616-1.427-8.186-1.427-13.704 0-16.562 5.853-30.692 17.56-42.399 11.703-11.706 25.837-17.561 42.394-17.561 17.515 0 32.079 6.283 43.688 18.846 13.134-2.474 25.892-7.33 38.26-14.56-4.757 14.652-13.613 25.788-26.55 33.402 12.368-1.716 23.88-4.95 34.537-9.708-7.993 12.181-17.989 22.554-29.98 31.123z"/></symbol></defs></svg>